<svg xmlns="http://www.w3.org/2000/svg" viewBox="0 0 56.313 56.314">
  <defs>
    <style>
      .cls-1 {
        fill: #0dc69e;
      }
    </style>
  </defs>
  <g id="clientes" transform="translate(0)">
    <path id="Path_270" data-name="Path 270" class="cls-1" d="M28.157,56.314A28.157,28.157,0,1,1,56.314,28.157,28.189,28.189,0,0,1,28.157,56.314Zm0-54.607a26.45,26.45,0,1,0,26.45,26.45A26.48,26.48,0,0,0,28.157,1.706Z"/>
    <path id="Path_271" data-name="Path 271" class="cls-1" d="M23.395,52.792A27.954,27.954,0,0,1,7.1,47.57a.853.853,0,0,1,.2-1.495c7.075-2.619,8.217-4.746,8.217-8.821a2.956,2.956,0,0,0-.679-2.072,11.241,11.241,0,0,1-1.927-5.015c-.082-.433-.152-.468-.539-.655-1.034-.5-1.985-1.215-2.234-4.485a3.952,3.952,0,0,1,1-2.915c-.1-.563-.261-1.534-.413-2.592C9.948,14.782,9.913,8.978,16.579,6.28c5.809-2.355,10.445-1.068,11.9.466A7.641,7.641,0,0,1,34.019,9.2c2.846,3.311,1.94,10.858,1.63,12.9a3.828,3.828,0,0,1,1.005,2.858c-.249,3.334-1.2,4.053-2.235,4.549-.389.188-.459.22-.539.655a11.246,11.246,0,0,1-1.925,5.015,2.945,2.945,0,0,0-.679,2.072c0,4.075,1.142,6.2,8.217,8.821a.853.853,0,0,1,.2,1.495A27.954,27.954,0,0,1,23.395,52.792ZM9.431,47.077a26.327,26.327,0,0,0,27.928,0c-5.928-2.433-7.79-4.887-7.79-9.821a4.578,4.578,0,0,1,.978-3.036A9.677,9.677,0,0,0,32.2,29.859a2.321,2.321,0,0,1,1.476-1.882c.531-.254,1.077-.517,1.27-3.077,0-1.3-.587-1.659-.611-1.672a.909.909,0,0,1-.451-.916c.423-2.268,1.119-9.341-1.162-12A5.968,5.968,0,0,0,28.244,8.47a1.42,1.42,0,0,1-.229-.027A1.362,1.362,0,0,1,27.3,8C26.84,7.2,22.8,5.6,17.219,7.859c-5.514,2.232-5.526,7.017-4.811,11.4.235,1.633.493,3.044.495,3.051a.853.853,0,0,1-.483.928h0c.005,0-.578.357-.578,1.72.191,2.493.739,2.758,1.268,3.012a2.322,2.322,0,0,1,1.478,1.882,9.662,9.662,0,0,0,1.655,4.362,4.569,4.569,0,0,1,.98,3.036C17.222,42.191,15.361,44.645,9.431,47.077Z" transform="translate(4.762 3.522)"/>
  </g>
</svg>
