<svg xmlns="http://www.w3.org/2000/svg" viewBox="0 0 24.006 15.957">
  <defs>
    <style>
      .cls-1 {
        fill: #3e4756;
        stroke: #3e4756;
        stroke-width: 0.5px;
      }
    </style>
  </defs>
  <g id="contacto" transform="translate(0.25 0.25)">
    <g id="Group_2" data-name="Group 2" transform="translate(0)">
      <path id="Path_86" data-name="Path 86" class="cls-1" d="M23.157,87.657H19.5a.349.349,0,0,0,0,.7h2.75l-10.5,9.53-10.5-9.53H17.874a.349.349,0,0,0,0-.7H.349A.349.349,0,0,0,0,88.006v14.759a.349.349,0,0,0,.349.349H23.157a.349.349,0,0,0,.349-.349V88.006A.349.349,0,0,0,23.157,87.657Zm-21.9,14.759L3.7,100.2a.349.349,0,0,0-.469-.517L.7,101.979V88.794l7.264,6.593-3.58,3.249a.349.349,0,0,0,.469.517l3.63-3.294,3.037,2.756a.349.349,0,0,0,.469,0l3.037-2.756,7.225,6.557Zm21.552-.437-7.264-6.592,7.264-6.593Z" transform="translate(0 -87.657)"/>
    </g>
  </g>
</svg>
