<svg xmlns="http://www.w3.org/2000/svg" viewBox="0 0 53.322 45.324">
  <defs>
    <style>
      .cls-1 {
        fill: #0dc69e;
      }
    </style>
  </defs>
  <path id="empresa" class="cls-1" d="M50.647,12.5H48.879V9.832H39.992V12.5H36.437V7.349A2.852,2.852,0,0,0,33.588,4.5H19.734a2.852,2.852,0,0,0-2.849,2.849V12.5H13.331V9.832H4.444V12.5H2.675A2.679,2.679,0,0,0,0,15.173V47.149a2.679,2.679,0,0,0,2.675,2.675H50.647a2.679,2.679,0,0,0,2.675-2.675V15.173A2.679,2.679,0,0,0,50.647,12.5Zm-8.878-.889H47.1V12.5H41.769ZM18.663,7.349a1.073,1.073,0,0,1,1.072-1.072H33.588a1.073,1.073,0,0,1,1.072,1.072V12.5h-16Zm-1.777,6.927h27.55V48.046H8.887V14.276h8ZM6.221,11.61h5.332V12.5H6.221ZM1.777,47.149V15.173a.9.9,0,0,1,.9-.9H7.11V48.046H2.675A.9.9,0,0,1,1.777,47.149Zm49.767,0a.9.9,0,0,1-.9.9H46.212V14.276h4.435a.9.9,0,0,1,.9.9Z" transform="translate(0 -4.5)"/>
</svg>
