<svg xmlns="http://www.w3.org/2000/svg" viewBox="0 0 17.877 15.643">
  <defs>
    <style>
      .cls-1 {
        fill: #3e4756;
      }
    </style>
  </defs>
  <g id="extranet" transform="translate(0 -38.25)">
    <g id="_x36__30_" transform="translate(0 38.25)">
      <g id="Group_794" data-name="Group 794">
        <path id="Path_263" data-name="Path 263" class="cls-1" d="M9.689,49.559a.559.559,0,1,0,.79.79l3.854-3.855a.645.645,0,0,0,0-.846l-3.854-3.854a.559.559,0,1,0-.79.79l2.929,2.929H.559a.559.559,0,0,0,0,1.117H12.618ZM15.643,38.25H4.469a2.235,2.235,0,0,0-2.235,2.235v2.235H3.352V40.485a1.117,1.117,0,0,1,1.117-1.117H15.643a1.117,1.117,0,0,1,1.117,1.117V51.658a1.117,1.117,0,0,1-1.117,1.117H4.469a1.117,1.117,0,0,1-1.117-1.117V49.423H2.235v2.235a2.235,2.235,0,0,0,2.235,2.235H15.643a2.235,2.235,0,0,0,2.235-2.235V40.485A2.235,2.235,0,0,0,15.643,38.25Z" transform="translate(0 -38.25)"/>
      </g>
    </g>
  </g>
</svg>
