<svg xmlns="http://www.w3.org/2000/svg" viewBox="0 0 45.067 45.067">
  <defs>
    <style>
      .cls-1 {
        fill: #0dc69e;
      }
    </style>
  </defs>
  <g id="librerias" transform="translate(0)">
    <path id="Path_203" data-name="Path 203" class="cls-1" d="M22.534,0H12.769a.751.751,0,0,0-.751.751V6.009H.751A.751.751,0,0,0,0,6.76V44.316a.751.751,0,0,0,.751.751H22.534a.751.751,0,0,0,.751-.751V.751A.751.751,0,0,0,22.534,0Zm-.751,39.058H13.52v-1.5h8.262ZM1.5,11.267H12.018V33.8H1.5Zm20.28-3H13.52V6.009h8.262ZM1.5,35.3H12.018v2.253H1.5Zm12.018.751V9.765h8.262V36.054ZM21.783,1.5v3H13.52v-3ZM12.018,7.511V9.765H1.5V7.511ZM1.5,39.058H12.018v4.507H1.5ZM13.52,43.565v-3h8.262v3Zm0,0"/>
    <path id="Path_204" data-name="Path 204" class="cls-1" d="M269.756,99.114l-9.013-34.552a.75.75,0,0,0-.921-.536l-11.267,3a.751.751,0,0,0-.533.915l9.013,34.552a.749.749,0,0,0,.921.535l11.267-3A.751.751,0,0,0,269.756,99.114Zm-18.9-26.237,9.816-2.617.353,1.352-9.815,2.621Zm10.548.193,4.356,16.711L255.953,92.4,251.6,75.687Zm4.739,18.165.769,2.948L257.1,96.8l-.766-2.947Zm-6.668-25.563.818,3.136-9.816,2.616-.817-3.134ZM258.3,101.388l-.818-3.136,9.816-2.618.817,3.134Zm0,0" transform="translate(-224.713 -57.992)"/>
    <path id="Path_205" data-name="Path 205" class="cls-1" d="M38.76,144H32.751a.751.751,0,0,0-.751.751v6.009a.751.751,0,0,0,.751.751H38.76a.751.751,0,0,0,.751-.751v-6.009A.751.751,0,0,0,38.76,144Zm-.751,6.009H33.5V145.5h4.507Zm0,0" transform="translate(-28.996 -130.48)"/>
  </g>
</svg>
