<svg id="logo" xmlns="http://www.w3.org/2000/svg" viewBox="0 0 181.38 60.61">
  <defs>
    <style>
      .cls-1 {
        fill: #9a9a9a;
      }

      .cls-2 {
        fill: #2c4375;
      }

      .cls-3 {
        fill: #9b9b9b;
      }

      .cls-4 {
        fill: #9c9c9c;
      }

      .cls-5 {
        fill: #2d4475;
      }
    </style>
  </defs>
  <g id="Capa_1" data-name="Capa 1">
    <path id="Path_42" data-name="Path 42" class="cls-1" d="M293.41,0a11.472,11.472,0,0,0,2.78.574A61.747,61.747,0,0,0,302.8.811h21.456a5.487,5.487,0,0,1,.691.029c.419.043.585.309.473.753a5.177,5.177,0,0,1-.683,1.448,86.489,86.489,0,0,0-4.752,8.991c-3.431,7.273-6.5,14.788-9.271,22.418q-2.495,6.688-4.35,13.625a37.291,37.291,0,0,0-1.062,5.5,6.189,6.189,0,0,0,0,1.747,2.186,2.186,0,0,1-.678,2.075,13.132,13.132,0,0,1-4.7,3.084,1.9,1.9,0,0,1-.754.13c-.446,0-.6-.169-.607-.652a11.458,11.458,0,0,1,.585-3.378c1.753-6.081,3.9-12,6.157-17.857q4.426-11.511,9.664-22.611,2.374-5.029,4.97-9.942c.241-.454.241-.454-.219-.454H301.968a26.145,26.145,0,0,0-5.488.367,5.559,5.559,0,0,0-1.736.647,4.631,4.631,0,0,0-1.994,3.378c-.138.772-.2,1.564-.3,2.346,0,.121,0,.309-.129.309s-.174-.183-.192-.319a13.915,13.915,0,0,1-.062-2.621c.1-1.448.268-2.9.446-4.344a40.366,40.366,0,0,0,.446-5.053A.8.8,0,0,1,293.1,0Z" transform="translate(-161.735)"/>
    <path id="Path_43" data-name="Path 43" class="cls-2" d="M0,30.275a.483.483,0,0,1,.4-.1h14.63c.339,0,.4.13.4.459V34.8c0,.367-.1.483-.446.483-2.565-.024-5.131-.029-7.7-.039H6.84c-.21,0-.286.1-.286.333V39c0,.362.183.357.419.357h6.081c.526,0,.526,0,.526.565v3.75c0,.555,0,.555-.5.555H6.965c-.317,0-.415.092-.415.439v6.709c0,.343-.089.454-.41.449H.4a.637.637,0,0,1-.4-.125Z" transform="translate(0 -15.608)"/>
    <path id="Path_44" data-name="Path 44" class="cls-2" d="M281.311,48.892a5.955,5.955,0,0,1-3.462,2.519,10.7,10.7,0,0,1-3.123.343,10.111,10.111,0,0,1-5.051-1.559,7.774,7.774,0,0,1-3.154-4.064,15.137,15.137,0,0,1-.1-10.594,9.634,9.634,0,0,1,5.47-5.734,9.983,9.983,0,0,1,12.158,3.721,6.756,6.756,0,0,1,1.138,3.007c.058.483.027.526-.446.531-1.731,0-3.462.029-5.193.053a.478.478,0,0,1-.553-.381,3.294,3.294,0,0,0-3.543-2.413,3.039,3.039,0,0,0-2.583,1.81,9.326,9.326,0,0,0,.1,8.779c1.392,2.572,4.154,2.273,5.8.671a3.722,3.722,0,0,0,.8-1.158c.138-.294.076-.4-.223-.391H277c-.37,0-.446-.121-.446-.483.022-1.2.022-2.389,0-3.586,0-.372.1-.483.446-.483h8.009c.335,0,.424.087.419.439V50.962c0,.352-.071.483-.424.483-1.107-.024-2.209,0-3.311,0-.321,0-.393-.116-.388-.43C281.32,50.364,281.311,49.7,281.311,48.892Z" transform="translate(-147.048 -15.016)"/>
    <path id="Path_45" data-name="Path 45" class="cls-2" d="M82.86,40.989V30.656c0-.42.112-.536.5-.536H98.494c.388,0,.509.111.5.536q-.031,2.042,0,4.083c0,.42-.129.512-.486.507H89.762c-.482,0-.491,0-.486.531v2.08c0,.6,0,.613.535.613l7.045-.029c.571,0,.571,0,.571.627V42.9c0,.343-.089.449-.415.449H89.736c-.317,0-.419.092-.41.444.022.888.022,1.781,0,2.669,0,.343.094.415.393.415h9.089c.384,0,.509.1.5.531-.027,1.347,0,2.693,0,4.04,0,.343-.089.444-.41.444H83.279c-.335,0-.406-.125-.406-.454C82.864,47.92,82.86,44.459,82.86,40.989Z" transform="translate(-45.89 -15.583)"/>
    <path id="Path_46" data-name="Path 46" class="cls-2" d="M185.736,40.979V30.646c0-.4.089-.526.446-.526h15.17c.366,0,.491.1.482.512v4.04c0,.56,0,.565-.5.565h-8.687c-.5,0-.5,0-.5.521v2.167c0,.521,0,.536.5.536l7.027-.024c.616,0,.616,0,.616.661v3.75c0,.376-.085.483-.446.483h-7.206c-.446,0-.446.029-.446.521v2.543c0,.352.071.454.4.454h9.089c.379,0,.513.087.5.526v4.04c0,.343-.085.449-.41.449H186.146c-.379,0-.446-.154-.446-.483C185.74,47.92,185.736,44.44,185.736,40.979Z" transform="translate(-102.846 -15.583)"/>
    <path id="Path_47" data-name="Path 47" class="cls-2" d="M130.319,41.073V51.28c0,.6,0,.6-.571.6h-5.93c-.317,0-.388-.106-.388-.425V30.624c0-.347.1-.454.419-.454H129.9c.348,0,.446.13.446.483C130.314,34.128,130.319,37.6,130.319,41.073Z" transform="translate(-68.359 -15.609)"/>
    <path id="Path_48" data-name="Path 48" class="cls-1" d="M352.158,83.908c-.3,1.588-.584,3.079-.87,4.571-.1.555-.219,1.11-.3,1.67-.036.251-.143.319-.357.309a7.1,7.1,0,0,0-.848,0c-.272,0-.3-.121-.259-.352q.79-4.083,1.566-8.171c.054-.275.161-.372.41-.348.41.034.892-.15,1.209.068s.366.767.522,1.173c.625,1.626,1.236,3.258,1.852,4.884.049.125.112.246.205.449.165-.854.317-1.622.446-2.413.236-1.274.477-2.548.709-3.822.045-.256.143-.391.406-.357a5.864,5.864,0,0,0,.651,0c.473,0,.482,0,.388.483q-.576,3.07-1.156,6.115c-.125.652-.25,1.3-.366,1.931-.04.241-.129.357-.379.343-.419-.029-.892.116-1.245-.077s-.366-.758-.526-1.163q-.959-2.476-1.905-4.952Z" transform="translate(-193.566 -42.189)"/>
    <path id="Path_49" data-name="Path 49" class="cls-1" d="M394.39,81.156a3.8,3.8,0,0,1,1.785.357,2.362,2.362,0,0,1,1.289,2.1c0,.275-.045.43-.33.386h-.308a1.694,1.694,0,0,1-.647,0c-.219-.1-.134-.41-.21-.623a1.37,1.37,0,0,0-1.388-.907,2.13,2.13,0,0,0-1.057.179,1.137,1.137,0,0,0-.709,1.081,1.012,1.012,0,0,0,.66,1.014c.589.28,1.231.372,1.838.594a2.133,2.133,0,0,1,1.686,2,2.7,2.7,0,0,1-1.477,2.761,4.33,4.33,0,0,1-3.489.14,2.623,2.623,0,0,1-1.584-2.64c0-.179.053-.261.219-.246h.192a2.334,2.334,0,0,1,.843.029c.29.121.138.531.236.8a1.391,1.391,0,0,0,.857.888A2.564,2.564,0,0,0,394.751,89a1.224,1.224,0,0,0,.794-1.163,1.189,1.189,0,0,0-.754-1.144,10.479,10.479,0,0,0-1.459-.483,5.691,5.691,0,0,1-.687-.265,1.972,1.972,0,0,1-1.276-1.718,2.56,2.56,0,0,1,1.129-2.51,3.238,3.238,0,0,1,1.892-.56Z" transform="translate(-216.242 -41.985)"/>
    <path id="Path_50" data-name="Path 50" class="cls-1" d="M9.137,92.39c.518-1.641,1-3.161,1.481-4.677a.837.837,0,0,1,.421-.523.735.735,0,0,1,.641-.013c.152.063.116.2.116.314v5.536c0,.323-.17.309-.37.309s-.37,0-.366-.309V88.505H11l-.62,1.9c-.281.878-.576,1.747-.834,2.635-.089.3-.25.314-.482.323a.356.356,0,0,1-.285-.062.413.413,0,0,1-.161-.262c-.446-1.4-.892-2.809-1.316-4.209-.04-.121-.04-.27-.2-.381v4.5c0,.3-.058.415-.357.415s-.37-.082-.366-.4V87.554c0-.29.076-.376.344-.376.8,0,.8,0,1.049.8C8.214,89.4,8.66,90.841,9.137,92.39Z" transform="translate(-3.533 -45.068)"/>
    <path id="Path_51" data-name="Path 51" class="cls-1" d="M303.953,91.878V87.52c0-.381.223-.285.415-.294s.361,0,.357.309V93.08c0,.111.045.3-.12.294-.272,0-.589.174-.8-.183-.518-.845-1.044-1.684-1.566-2.524a20.781,20.781,0,0,0-1.276-1.9v4.223c0,.3-.062.415-.357.41s-.379-.077-.379-.4V87.7c0-.154-.107-.425.152-.434s.535-.154.736.174c.491.816.995,1.617,1.495,2.413l1.272,2.066Z" transform="translate(-166.259 -45.125)"/>
    <path id="Path_52" data-name="Path 52" class="cls-1" d="M127.687,88.792V92.9a.5.5,0,0,1-.194.465.418.418,0,0,1-.471.018c-.112-.053-.094-.154-.094-.241V87.465c0-.111,0-.251.143-.241.272.024.576-.13.794.236.558.965,1.147,1.873,1.727,2.809a15.892,15.892,0,0,0,1.1,1.626V87.6c0-.285.062-.4.339-.386s.4.029.393.376v5.309c0,.159.107.43-.134.449s-.571.164-.776-.174c-.263-.439-.54-.874-.812-1.313l-1.919-3.113Z" transform="translate(-70.296 -45.119)"/>
    <path id="Path_53" data-name="Path 53" class="cls-1" d="M190.749,93.354a2.3,2.3,0,0,1-1.575-.41,2.036,2.036,0,0,1-.767-1.342c-.027-.145-.058-.352.17-.323s.531-.217.567.174c.1,1.134,1.825,1.559,2.677.874a.88.88,0,0,0,.341-.856.825.825,0,0,0-.59-.679c-.54-.212-1.107-.343-1.66-.516a2.49,2.49,0,0,1-.4-.15,1.452,1.452,0,0,1-.892-1.448,1.506,1.506,0,0,1,.928-1.448,2.586,2.586,0,0,1,2.342.077,1.6,1.6,0,0,1,.834,1.269c0,.13.076.319-.129.3s-.446.188-.584-.106a1.488,1.488,0,0,0-2.021-.965.85.85,0,0,0-.638.792.726.726,0,0,0,.58.767c.567.183,1.138.323,1.7.512a1.649,1.649,0,0,1,1.3,1.786,1.841,1.841,0,0,1-1.718,1.651A1.546,1.546,0,0,1,190.749,93.354Z" transform="translate(-104.335 -45.004)"/>
    <path id="Path_54" data-name="Path 54" class="cls-3" d="M253.881,89.641a13.853,13.853,0,0,1-.089,2.268,1.779,1.779,0,0,1-1.673,1.549,3.677,3.677,0,0,1-1.3-.063,1.842,1.842,0,0,1-1.339-1.709,11.248,11.248,0,0,1-.062-1.284c0-.917.022-1.834,0-2.751,0-.386.116-.483.446-.449s.352.087.348.376v3.335a4.24,4.24,0,0,0,.085.825,1.164,1.164,0,0,0,.83.965,2,2,0,0,0,1.178,0c.54-.174.781-.579.834-1.3.089-1.236.04-2.471.049-3.707,0-.28,0-.454.357-.454s.4.154.388.483A17.831,17.831,0,0,0,253.881,89.641Z" transform="translate(-138.135 -45.113)"/>
    <path id="Path_55" data-name="Path 55" class="cls-1" d="M265.953,93.374c-1.727.087-2.472-1.231-2.619-2.77a3.861,3.861,0,0,1,.446-2.413,2.482,2.482,0,0,1,4.194-.058,1.13,1.13,0,0,1,.076.145c.067.164.223.381.143.483s-.393.154-.6.217c-.138.039-.147-.125-.192-.217a1.434,1.434,0,0,0-1.7-1.023,1.666,1.666,0,0,0-1.45,1.289,3.926,3.926,0,0,0,0,2.365,1.685,1.685,0,0,0,1.633,1.269,1.56,1.56,0,0,0,1.571-1.255c.161-.526.446-.179.665-.145.312.043.143.294.089.449a2.2,2.2,0,0,1-2.258,1.665Z" transform="translate(-145.82 -45.014)"/>
    <path id="Path_56" data-name="Path 56" class="cls-3" d="M90.843,90.324a3.21,3.21,0,0,0,.17,1.134A1.673,1.673,0,0,0,92.7,92.7a1.57,1.57,0,0,0,1.526-1.274c.156-.536.446-.135.638-.135.3,0,.165.236.12.391a2.257,2.257,0,0,1-2.164,1.713c-1.829.111-2.606-1.211-2.748-2.7a3.436,3.436,0,0,1,.861-2.963,2.419,2.419,0,0,1,3.9.695c.054.14.268.391-.049.483-.219.053-.509.362-.683-.135A1.359,1.359,0,0,0,92.69,87.8a1.645,1.645,0,0,0-1.6,1.014A3.3,3.3,0,0,0,90.843,90.324Z" transform="translate(-49.866 -45.024)"/>
    <path id="Path_57" data-name="Path 57" class="cls-3" d="M67.53,90.7V93.04c0,.381-.192.333-.415.343s-.375,0-.37-.347V88.373c0-.338-.089-.434-.393-.415H65.16c-.308,0-.281-.179-.281-.4s0-.367.272-.362h4.016c.286,0,.268.174.263.376s.036.391-.259.381H67.833c-.232,0-.312.077-.308.333C67.538,89.1,67.53,89.9,67.53,90.7Z" transform="translate(-35.932 -45.114)"/>
    <path id="Path_58" data-name="Path 58" class="cls-3" d="M204.109,90.665V93.04c0,.381-.187.338-.41.343s-.379,0-.375-.338V88.378c0-.319-.067-.444-.379-.42-.41.029-.825,0-1.236,0-.29,0-.245-.193-.25-.386s0-.376.263-.372h3.966c.281,0,.272.169.268.376s.027.391-.259.381h-1.312c-.236,0-.308.077-.3.333C204.118,89.082,204.109,89.874,204.109,90.665Z" transform="translate(-111.573 -45.114)"/>
    <path id="Path_59" data-name="Path 59" class="cls-4" d="M105.2,90.327v-2.7c0-.328.112-.42.41-.425s.406.1.406.425v5.41c0,.376-.187.347-.415.347s-.419,0-.406-.347C105.221,92.132,105.2,91.23,105.2,90.327Z" transform="translate(-58.262 -45.114)"/>
    <path id="Path_60" data-name="Path 60" class="cls-1" d="M183.455,90.293V93c0,.362-.125.405-.4.4s-.388-.034-.384-.376V87.571c0-.367.165-.343.4-.352s.393.029.384.372C183.442,88.493,183.455,89.4,183.455,90.293Z" transform="translate(-101.167 -45.123)"/>
    <path id="Path_61" data-name="Path 61" class="cls-3" d="M229.632,90.293V87.552c0-.347.165-.338.388-.333s.4-.048.4.319v5.526c0,.391-.214.309-.446.328s-.366-.048-.361-.357C229.641,92.122,229.632,91.205,229.632,90.293Z" transform="translate(-127.164 -45.123)"/>
    <path id="Path_62" data-name="Path 62" class="cls-1" d="M.17,90.273V87.653c0-.314.027-.483.384-.483s.4.106.4.449V92.9c0,.314-.027.483-.379.483s-.406-.164-.4-.483C.183,92.02.17,91.142.17,90.273Z" transform="translate(-0.094 -45.099)"/>
    <path id="Path_63" data-name="Path 63" class="cls-1" d="M278.549,90.293V87.629c0-.323.071-.434.384-.42s.406.039.4.4v5.406c0,.343-.12.376-.384.376s-.415-.034-.4-.4C278.567,92.093,278.549,91.19,278.549,90.293Z" transform="translate(-154.267 -45.118)"/>
    <path id="Path_64" data-name="Path 64" class="cls-3" d="M359.277,77.972a2.962,2.962,0,0,1-1.138-.4c-.446-.227-.7-.372-1.022.232-.147.275-.446.183-.629.116s-.036-.294,0-.43c.326-.965.968-1.26,1.852-.811l.558.28a.485.485,0,0,0,.463.071.542.542,0,0,0,.327-.361c.143-.347.446-.241.629-.174s.067.333,0,.483C360.125,77.5,359.844,77.933,359.277,77.972Z" transform="translate(-197.383 -39.54)"/>
    <path id="Path_65" data-name="Path 65" class="cls-3" d="M116,85.229c.156-.357.3-.676.446-1,.071-.169.2-.14.326-.145h.567A1.365,1.365,0,0,1,116,85.229Z" transform="translate(-64.244 -43.5)"/>
    <path id="Path_66" data-name="Path 66" class="cls-3" d="M290.812,84.114l-.7.965a.478.478,0,0,1-.071.1.457.457,0,0,1-.54.058c-.161-.087,0-.256.067-.376C289.906,84.013,289.91,84.042,290.812,84.114Z" transform="translate(-160.297 -43.501)"/>
    <path id="Path_67" data-name="Path 67" class="cls-2" d="M160.72,43.947a4.284,4.284,0,0,0-1.664-2.9,7.326,7.326,0,0,0-1.339-.695,5.646,5.646,0,0,0,2.383-4.016,4.749,4.749,0,0,0-2.7-5.309A10.5,10.5,0,0,0,153,30.144c-3.262-.034-6.523,0-9.785-.034-.37,0-.446.116-.446.512v20.7c0,.372.071.483.446.483h9.976a12.029,12.029,0,0,0,3.047-.357,5.675,5.675,0,0,0,3.186-1.8A6.683,6.683,0,0,0,160.72,43.947Zm-11.542-5.492c.022-.483,0-.965,0-1.448V35.429c0-.183,0-.347.232-.338,1.026.053,2.052-.058,3.074.063a2.555,2.555,0,0,1,.669.179,1.647,1.647,0,0,1,1.1,1.626,1.739,1.739,0,0,1-1.093,1.728,2.84,2.84,0,0,1-1.124.222H149.57C149.24,38.918,149.164,38.783,149.177,38.455Zm4.85,8.055a3.69,3.69,0,0,1-1.785.338h-2.735c-.219,0-.321-.043-.321-.319v-3.5c0-.174.027-.3.223-.294a30.086,30.086,0,0,1,3.846.1,2.094,2.094,0,0,1,1.535.922,2.068,2.068,0,0,1,.188,1.562A1.894,1.894,0,0,1,154.027,46.51Z" transform="translate(-79.07 -15.578)"/>
    <path id="Path_68" data-name="Path 68" class="cls-5" d="M243.419,51.058a1.477,1.477,0,0,1-.7-1.38c0-1.279.036-2.553-.054-3.832a4.073,4.073,0,0,0-2.677-3.933c-.129-.048-.254-.106-.424-.183a4.342,4.342,0,0,0,2.583-2.461,8.078,8.078,0,0,0,.4-4.961,4.434,4.434,0,0,0-3.047-3.277,13.779,13.779,0,0,0-4.765-.806c-3.221-.058-6.443-.029-9.664-.053-.375,0-.473.116-.468.512V51.222c0,.811,0,.652.585.652h5.51c.4,0,.5-.125.491-.541v-6.54c0-.2-.036-.386.254-.381.991,0,1.977,0,2.967.034a2.177,2.177,0,0,1,2.106,1.979,9.254,9.254,0,0,1,.156,1.53,28.076,28.076,0,0,0,.138,3.407c.062.4.214.512.58.512h5.854c.134,0,.352.125.384-.13S243.714,51.242,243.419,51.058Zm-6.693-13.345a1.911,1.911,0,0,1-1.24,1.728,3.925,3.925,0,0,1-1.432.256H231.4c-.178,0-.339,0-.335-.27V35.392c0-.048.045-.092.067-.14q1.414-.039,2.82,0a2.963,2.963,0,0,1,2.012.483,1.973,1.973,0,0,1,.759,1.979Z" transform="translate(-124.389 -15.609)"/>
    <path id="Path_69" data-name="Path 69" class="cls-2" d="M55.909,51.094a1.786,1.786,0,0,1-.7-1.718,31.782,31.782,0,0,0-.076-3.745,3.939,3.939,0,0,0-2.383-3.562c-.228-.092-.446-.193-.723-.309a4.28,4.28,0,0,0,2.6-2.413,8.294,8.294,0,0,0,.553-4.107,4.514,4.514,0,0,0-2.963-4.064,13.09,13.09,0,0,0-4.908-.9c-3.288-.048-6.577-.024-9.86-.043-.3,0-.366.106-.366.405V51.514c0,.328.08.43.393.425H43.21c.352,0,.446-.1.446-.483,0-2.2,0-4.392-.022-6.588,0-.241.04-.391.312-.386.964,0,1.927,0,2.891.029a2.154,2.154,0,0,1,2.115,1.868,10.316,10.316,0,0,1,.2,2.191,23.942,23.942,0,0,0,.129,2.785c.054.386.2.55.6.545h6.068c.165,0,.228-.087.214-.261A.69.69,0,0,0,55.909,51.094ZM48.6,39.082a2.621,2.621,0,0,1-1.869.623c-.933.029-1.869,0-2.806,0-.263,0-.357-.082-.348-.386V37.45h0V35.578c0-.169,0-.323.205-.319a21.571,21.571,0,0,1,3.868.135,1.794,1.794,0,0,1,1.508,1.448A2.276,2.276,0,0,1,48.6,39.082Z" transform="translate(-20.536 -15.64)"/>
    <path id="Path_70" data-name="Path 70" class="cls-1" d="M380.109,14.328A25.11,25.11,0,0,0,378.4,7.856a12.151,12.151,0,0,0-3.2-4.614,7.54,7.54,0,0,0-5.9-1.791,8.22,8.22,0,0,0-5.354,2.833,15.065,15.065,0,0,0-3.021,5.454,33.433,33.433,0,0,0-1.535,10.439,28.175,28.175,0,0,0,.143,3.07,24.517,24.517,0,0,0,1.785,7.384,12.7,12.7,0,0,0,3.217,4.71,7.367,7.367,0,0,0,5.559,1.931,7.865,7.865,0,0,0,4.511-1.805,12.718,12.718,0,0,0,3.569-4.928A30.086,30.086,0,0,0,380.4,19.507a29.146,29.146,0,0,0-.294-5.179Zm-4.7,15.927a11.48,11.48,0,0,1-1.691,3.378,4.067,4.067,0,0,1-6.291.767,10.136,10.136,0,0,1-2.7-4.344,27.407,27.407,0,0,1-1.423-6.351,42.254,42.254,0,0,1-.285-6.718,30.421,30.421,0,0,1,1.526-9.271,8.371,8.371,0,0,1,2.338-3.644,3.982,3.982,0,0,1,5.43.29A11.763,11.763,0,0,1,375.174,9.3a29.558,29.558,0,0,1,1.392,6.863c.134,1.39.205,2.79.228,4.233a32.8,32.8,0,0,1-1.388,9.846Z" transform="translate(-199.039 -0.718)"/>
    <path id="Path_71" data-name="Path 71" class="cls-1" d="M376.76,81.9a3.984,3.984,0,0,0-5.354.734,6.182,6.182,0,0,0-1.254,4.406,3.725,3.725,0,0,0,.937,2.36,3.991,3.991,0,0,0,5.577-.077,5.812,5.812,0,0,0,1.486-4.069A4.16,4.16,0,0,0,376.76,81.9Zm-1.383,6.684a2.224,2.224,0,0,1-3.641-.825,4.838,4.838,0,0,1,1.365-4.865,2.261,2.261,0,0,1,3,.3,3.459,3.459,0,0,1,.544,2.3A4.537,4.537,0,0,1,375.377,88.584Z" transform="translate(-204.983 -42)"/>
    <path id="Path_72" data-name="Path 72" class="cls-1" d="M336.709,90.012q-.576-3.576-1.151-7.153c-.062-.381-.036-.864-.241-1.105s-.7-.053-1.066-.106a.6.6,0,0,0-.669.4c-.986,1.805-1.986,3.6-2.98,5.4-.553.994-1.1,1.993-1.691,3.074H330.1a.512.512,0,0,0,.553-.333c.294-.594.629-1.173.937-1.766a.389.389,0,0,1,.4-.246h2.677c.219,0,.321.072.344.323a9.346,9.346,0,0,0,.138.965c.058.333-.036.8.2.965s.616.058.937.058C336.794,90.495,336.789,90.495,336.709,90.012ZM334.536,87h-1.883c-.2,0-.308-.029-.178-.275q.892-1.66,1.74-3.321c0-.034.031-.072.089-.2.17,1.24.326,2.35.482,3.465.031.2-.013.314-.25.309Z" transform="translate(-182.159 -42.232)"/>
    <path id="Path_73" data-name="Path 73" class="cls-1" d="M239.311,90.2a.546.546,0,0,1-.1-.1,1.53,1.53,0,0,0,.625-1.68,1.443,1.443,0,0,0-1.223-1.129,23.237,23.237,0,0,0-2.458-.072c-.2,0-.272.072-.272.29v5.579c0,.2.04.309.254.3H238.6a1.538,1.538,0,0,0,1.526-1.269A1.616,1.616,0,0,0,239.311,90.2Zm-1.923-2.22a9.752,9.752,0,0,1,.995.063.711.711,0,0,1,.534.247.835.835,0,0,1,.2.588.857.857,0,0,1-.168.622.731.731,0,0,1-.536.29,6.367,6.367,0,0,1-.8,0c-.964,0-.964,0-.964-1.009,0-.806,0-.811.741-.8Zm1.165,4.648c-.544.048-1.1.043-1.646.068-.2,0-.268-.082-.263-.294V90.907c0-.275.076-.381.326-.352h.567a4.363,4.363,0,0,1,1,.068,1.023,1.023,0,0,1,0,2Z" transform="translate(-130.637 -45.125)"/>
    <path id="Path_74" data-name="Path 74" class="cls-1" d="M54.879,90.623l.446-.159a1.594,1.594,0,0,0,1.026-1.791,1.482,1.482,0,0,0-1.4-1.39c-.946-.092-1.9-.039-2.842-.063-.236,0-.308.077-.308.328v5.5c0,.376.187.338.41.352s.4-.034.384-.376c-.027-.681,0-1.361,0-2.042,0-.125-.049-.275.143-.328a1.86,1.86,0,0,1,1.887.7c.375.579.727,1.173,1.08,1.771a.41.41,0,0,0,.446.265h.714A11.724,11.724,0,0,0,54.879,90.623Zm-2.1-.661c-.165,0-.187-.1-.187-.236v-1.54c0-.188.08-.236.236-.232h1.843a.963.963,0,0,1,.915.936.942.942,0,0,1-.812.989,11.969,11.969,0,0,1-1.994.082Z" transform="translate(-28.688 -45.125)"/>
    <path id="Path_75" data-name="Path 75" class="cls-1" d="M219.785,93.093a9.115,9.115,0,0,0-1.727-2.452c.1-.135.228-.111.33-.15a1.607,1.607,0,0,0,1.106-1.766,1.494,1.494,0,0,0-1.472-1.448c-.87-.092-1.82,0-2.726-.068-.308,0-.357.121-.357.415V93c0,.309.08.4.366.4s.393-.063.379-.391c-.022-.666,0-1.332,0-2,0-.135-.031-.285.134-.352a2.178,2.178,0,0,1,1.727.439,8.183,8.183,0,0,1,1.106,1.747.878.878,0,0,0,.986.55C219.875,93.383,219.942,93.339,219.785,93.093Zm-3.9-3.132c-.183,0-.2-.116-.2-.27V88.243c0-.217.076-.294.272-.285h1.883a.924.924,0,0,1,.935.919.94.94,0,0,1-.85,1.011A12.46,12.46,0,0,1,215.881,89.961Z" transform="translate(-119.04 -45.12)"/>
    <path id="Path_76" data-name="Path 76" class="cls-3" d="M151.8,92.571c-.526-.483-.54-.55-.272-1.25.036-.092.062-.183.094-.275.143-.483.125-.483-.326-.584-.183-.029-.326,0-.37.232a3.789,3.789,0,0,1-.183.55c-.245-.333-.446-.594-.642-.869-.33-.483-.326-.483.1-.835a1.413,1.413,0,0,0,.094-2.225,1.407,1.407,0,0,0-1.932,2.017c.25.348.241.483-.12.719a1.766,1.766,0,0,0-.892,1.863,1.834,1.834,0,0,0,2.7,1.284c.272-.13.446-.531.709-.483s.446.391.66.594c.071.063.156.208.259.1a1.584,1.584,0,0,0,.37-.521C152.11,92.74,151.9,92.668,151.8,92.571ZM149.411,87.7a.6.6,0,0,1,.457.179.706.706,0,0,1,.2.478c0,.348-.419.965-.678.965-.178,0-.616-.695-.611-.965A.645.645,0,0,1,149.411,87.7Zm.776,4.469a1.376,1.376,0,0,1-1.066.55.946.946,0,0,1-.892-.695,1.024,1.024,0,0,1,.161-1.149,1.967,1.967,0,0,1,.161-.179c.446-.454.473-.454.861.058.272.352.526.714.794,1.062A.234.234,0,0,1,150.187,92.166Z" transform="translate(-81.593 -45.032)"/>
    <path id="Path_77" data-name="Path 77" class="cls-3" d="M172.565,89.239a2.255,2.255,0,0,0-2.133-1.931c-.7,0-1.41,0-2.115-.039-.268,0-.352.082-.348.376V93.1c0,.232.04.357.294.352h2.191a1.947,1.947,0,0,0,1.722-1,4.417,4.417,0,0,0,.388-3.21Zm-.8,2.128a1.456,1.456,0,0,1-1.521,1.3h-.535c-.955,0-.955,0-.955-1.028V88.351c0-.275.076-.372.326-.357.446.034.848.029,1.267.034a1.59,1.59,0,0,1,1.477,1.525,4.607,4.607,0,0,1-.058,1.815Z" transform="translate(-93.026 -45.151)"/>
    <path id="Path_78" data-name="Path 78" class="cls-1" d="M38.588,87C37,87,35.844,88.105,35.84,90.224s1.339,3.214,2.7,3.132c1.571.077,2.74-1.192,2.744-3.074C41.265,88.318,40.208,87,38.588,87Zm1.66,4.542a1.838,1.838,0,0,1-1.977,1.11,2,2,0,0,1-1.6-1.873,5.267,5.267,0,0,1,.058-1.448,1.931,1.931,0,0,1,1.71-1.594,1.881,1.881,0,0,1,1.891,1.333,3.466,3.466,0,0,1-.1,2.49Z" transform="translate(-19.849 -45.011)"/>
    <path id="Path_79" data-name="Path 79" class="cls-1" d="M287.036,87c-1.651,0-2.78,1.3-2.766,3.219s1.115,3.132,2.713,3.137c1.579.077,2.744-1.192,2.748-3.07C289.731,88.318,288.674,87.024,287.036,87Zm1.669,4.513a1.84,1.84,0,0,1-2,1.134,2.034,2.034,0,0,1-1.6-1.931v-.483a2.46,2.46,0,0,1,.767-2.109,1.761,1.761,0,0,1,1.659-.323,1.944,1.944,0,0,1,1.228,1.25,3.431,3.431,0,0,1-.058,2.481Z" transform="translate(-157.436 -45.011)"/>
    <path id="Path_80" data-name="Path 80" class="cls-1" d="M116.374,89.639a2.716,2.716,0,0,0-1.722-2.413,2.493,2.493,0,0,0-2.851.623,3.44,3.44,0,0,0-.808,2.9,2.663,2.663,0,0,0,3.864,2.413,2.887,2.887,0,0,0,1.548-2.9q0-.312-.031-.623Zm-1.945,2.9c-1.267.594-2.539-.347-2.677-1.931a4.229,4.229,0,0,1,.1-1.279,1.809,1.809,0,0,1,1.927-1.535,1.881,1.881,0,0,1,1.753,1.631,4.061,4.061,0,0,1,.08.869A2.25,2.25,0,0,1,114.429,92.535Z" transform="translate(-61.441 -45.02)"/>
    <path id="Path_81" data-name="Path 81" class="cls-3" d="M27.182,88.827a1.588,1.588,0,0,0-1.419-1.535c-.892-.092-1.785-.058-2.65-.072-.241,0-.308.082-.3.333v5.536c0,.333.174.309.37.3s.424.082.41-.294V91.511c0-.608,0-.6.571-.608a6.46,6.46,0,0,0,1.95-.14A1.8,1.8,0,0,0,27.182,88.827Zm-1.745,1.3h-.8c-.268,0-.758.169-.968-.048s-.076-.709-.08-1.076c0-1.038,0-1.042.95-1.033a4.953,4.953,0,0,1,1,.039,1.042,1.042,0,0,1,.852,1.106,1.022,1.022,0,0,1-.95,1.008Z" transform="translate(-12.633 -45.125)"/>
    <path id="Path_82" data-name="Path 82" class="cls-1" d="M80.929,93.111c-.7-1.9-1.428-3.793-2.146-5.69a.286.286,0,0,0-.236-.232c-.535-.087-.656,0-.848.531-.1.275-.2.545-.29.816q-.8,2.244-1.6,4.5c-.031.092-.12.2-.036.3s.758,0,.825-.222c.147-.43.29-.859.446-1.289a.358.358,0,0,1,.384-.314h1.847a.3.3,0,0,1,.335.256c.125.391.29.772.4,1.168s.25.483.62.4C80.657,93.212,81.112,93.608,80.929,93.111Zm-3.386-2.278c-.25,0-.107-.188-.076-.294.263-.825.6-1.622.808-2.548.339.989.642,1.882.977,2.848C78.654,90.837,78.087,90.847,77.543,90.833Z" transform="translate(-41.947 -45.093)"/>
  </g>
</svg>
