<svg xmlns="http://www.w3.org/2000/svg" viewBox="0 0 377.21 116.5"><defs><style>.cls-1{fill:#fff;}</style></defs><title>logo freiberg 70 blanco</title><g id="Capa_2" data-name="Capa 2"><g id="Capa_1-2" data-name="Capa 1"><path class="cls-1" d="M273.85,0a25.82,25.82,0,0,0,5.77,1.11c4.58.45,9.17.45,13.76.45H338a13.86,13.86,0,0,1,1.44.05,1,1,0,0,1,1,1.45A9.56,9.56,0,0,1,339,5.83a161.24,161.24,0,0,0-9.88,17.28c-7.17,14-13.51,28.46-19.29,43.12a274.62,274.62,0,0,0-9,26.2A66.48,66.48,0,0,0,298.58,103a11.13,11.13,0,0,0,0,3.36,4,4,0,0,1-1.41,4,27.86,27.86,0,0,1-9.77,5.93,4.35,4.35,0,0,1-1.57.25c-.92,0-1.25-.33-1.26-1.26a20.42,20.42,0,0,1,1.21-6.47c3.65-11.69,8.11-23.07,12.81-34.37q9.19-22.13,20.1-43.47,4.94-9.69,10.33-19.12c.51-.87.51-.87-.45-.87-12.31,0-24.62,0-36.93,0a58.86,58.86,0,0,0-11.48.72,12.46,12.46,0,0,0-3.61,1.24c-2.54,1.44-3.62,3.83-4.15,6.53-.29,1.49-.41,3-.62,4.51,0,.23,0,.59-.27.59s-.36-.35-.39-.61a24.29,24.29,0,0,1-.14-5c.21-2.78.56-5.56.92-8.33a72.66,72.66,0,0,0,1-9.77,1.53,1.53,0,0,1,.31-.81Z"/><path class="cls-1" d="M0,28.2A1.07,1.07,0,0,1,.83,28Q16,28,31.26,28c.7,0,.83.26.83.88,0,2.67,0,5.34,0,8,0,.71-.21.92-.91.91-5.34,0-10.67,0-16-.07h-1c-.44,0-.6.2-.6.65,0,2.19,0,4.38,0,6.56,0,.7.38.7.87.69l12.65,0c1.1,0,1.1,0,1.1,1.1v7.2c0,1.07,0,1.07-1,1.07-4.25,0-8.49,0-12.74,0-.66,0-.86.18-.85.85,0,4.29,0,8.59,0,12.89,0,.66-.18.87-.86.87-4,0-7.95,0-11.93,0A1.37,1.37,0,0,1,0,69.38Z"/><path class="cls-1" d="M279.22,65.13A12.34,12.34,0,0,1,272,70a23.44,23.44,0,0,1-6.51.66,22.32,22.32,0,0,1-10.5-3,15.21,15.21,0,0,1-6.56-7.82,27,27,0,0,1-.21-20.36c2.09-5.37,6.07-8.88,11.38-11a21.73,21.73,0,0,1,25.28,7.14,12.37,12.37,0,0,1,2.36,5.78c.13,1,.06,1-.87,1q-5.4,0-10.81.1a1,1,0,0,1-1.14-.73,6.87,6.87,0,0,0-7.37-4.64,6.33,6.33,0,0,0-5.41,3.48c-2.89,5.63-3,11.37.21,16.87,2.89,5,8.65,4.37,12.07,1.29a7.29,7.29,0,0,0,1.67-2.22c.28-.57.15-.76-.47-.76-1.63,0-3.26,0-4.89,0-.77,0-.93-.24-.92-1,.05-2.29.05-4.59,0-6.88,0-.72.22-.9.91-.9,4.86,0,9.72,0,14.58,0,.69,0,1.39,0,2.08,0s.88.17.87.85c0,2.59,0,5.18,0,7.77,0,4.49,0,9,0,13.46,0,.68-.15.93-.88.92q-3.45-.07-6.89,0c-.66,0-.82-.23-.8-.83C279.25,68,279.22,66.68,279.22,65.13Z"/><path class="cls-1" d="M76.89,48.84c0-6.62,0-13.24,0-19.86,0-.81.23-1,1-1q15.74,0,31.48,0c.8,0,1,.21,1,1,0,2.62,0,5.23,0,7.85,0,.8-.27,1-1,1-6.06,0-12.12,0-18.19,0-1,0-1,0-1,1,0,1.34,0,2.67,0,4,0,1.15,0,1.17,1.12,1.17L106,43.93c1.18,0,1.18,0,1.18,1.21,0,2.46,0,4.92,0,7.37,0,.66-.19.87-.87.86-5,0-10.09,0-15.13,0-.67,0-.88.17-.86.85q.08,2.56,0,5.13c0,.66.2.8.82.8,6.3,0,12.6,0,18.9,0,.79,0,1.06.19,1,1,0,2.59,0,5.18,0,7.77,0,.66-.18.85-.85.85q-16.26,0-32.52,0c-.7,0-.84-.24-.84-.87C76.9,62.19,76.89,55.52,76.89,48.84Z"/><path class="cls-1" d="M172.39,48.83c0-6.63,0-13.25,0-19.87,0-.76.19-1,1-1q15.78,0,31.57,0c.76,0,1,.2,1,1,0,2.59,0,5.18,0,7.77,0,1.08,0,1.08-1.06,1.08h-18.1c-1,0-1,0-1,1,0,1.39,0,2.78,0,4.17,0,1,0,1,1,1l14.66-.06c1.27,0,1.27,0,1.27,1.28,0,2.4,0,4.81,0,7.21,0,.72-.18,1-.94,1-5,0-10,0-15,0-.93,0-1,.06-.94,1,0,1.63,0,3.26,0,4.88,0,.69.15.88.83.88,6.3,0,12.6,0,18.9,0,.79,0,1.07.17,1.05,1-.05,2.59,0,5.18,0,7.77,0,.66-.18.86-.86.86q-16.22,0-32.44,0c-.8,0-.91-.29-.91-1C172.4,62.13,172.39,55.48,172.39,48.83Z"/><path class="cls-1" d="M128.86,49V68.58c0,1.15,0,1.15-1.19,1.15-4.11,0-8.22,0-12.33,0-.66,0-.81-.21-.81-.83q0-20,0-40c0-.66.21-.87.87-.87q6.28,0,12.57,0c.73,0,.9.25.9.93C128.85,35.61,128.86,42.28,128.86,49Z"/><path class="cls-1" d="M329.82,80.21c-.63,3.05-1.22,5.92-1.8,8.78-.22,1.07-.47,2.14-.64,3.21-.08.49-.3.62-.74.6a17.22,17.22,0,0,0-1.76,0c-.57,0-.63-.23-.54-.68,1.09-5.23,2.19-10.47,3.26-15.71.11-.53.33-.71.85-.67.85.07,1.84-.28,2.52.13s.76,1.48,1.08,2.26c1.3,3.12,2.57,6.26,3.86,9.39.09.24.22.47.41.86.35-1.64.67-3.11,1-4.6q.75-3.68,1.47-7.35c.1-.49.3-.75.85-.69a12.34,12.34,0,0,0,1.36,0c1,0,1,0,.81.92q-1.21,5.86-2.44,11.72c-.26,1.25-.53,2.5-.76,3.76-.09.47-.28.69-.79.66-.88-.06-1.9.22-2.6-.15s-.76-1.46-1.08-2.24c-1.34-3.16-2.65-6.34-4-9.51C330.07,80.74,330,80.57,329.82,80.21Z"/><path class="cls-1" d="M370.49,75.31a8.45,8.45,0,0,1,3.71.69,4.49,4.49,0,0,1,2.68,4c.05.53-.08.83-.68.74a4.56,4.56,0,0,0-.64,0,4,4,0,0,1-1.35,0c-.45-.19-.28-.79-.43-1.2-.5-1.36-1.66-1.66-2.89-1.74a4.74,4.74,0,0,0-2.19.34,2.18,2.18,0,0,0-1.48,2.08,1.93,1.93,0,0,0,1.37,1.94,39,39,0,0,0,3.82,1.14c2.33.79,3.4,1.94,3.51,3.85a5.12,5.12,0,0,1-3.07,5.31,9.73,9.73,0,0,1-7.25.27c-2.47-.85-3.24-3-3.3-5.08,0-.34.11-.5.46-.47.13,0,.26,0,.4,0a5,5,0,0,1,1.74,0c.61.24.29,1,.5,1.54a2.71,2.71,0,0,0,1.78,1.71,5.77,5.77,0,0,0,4.07-.14,2.38,2.38,0,0,0,1.65-2.24,2.29,2.29,0,0,0-1.57-2.19,21.5,21.5,0,0,0-3-1,12.16,12.16,0,0,1-1.43-.51,3.86,3.86,0,0,1-2.65-3.3,4.78,4.78,0,0,1,2.35-4.83A7.1,7.1,0,0,1,370.49,75.31Z"/><path class="cls-1" d="M11.65,91c1.08-3.16,2.09-6.07,3.09-9a1.63,1.63,0,0,1,2.2-1c.32.12.24.38.24.6,0,3.55,0,7.1,0,10.65,0,.62-.35.59-.77.59s-.76,0-.76-.6c0-2.74,0-5.49,0-8.24v-.45l-.14,0-1.29,3.64c-.59,1.69-1.2,3.36-1.73,5.06-.18.59-.52.61-1,.63a.78.78,0,0,1-.92-.62c-.89-2.71-1.82-5.4-2.74-8.1-.08-.23-.08-.51-.41-.73,0,.32,0,.57,0,.82,0,2.61,0,5.23,0,7.84,0,.58-.13.8-.75.8s-.77-.16-.76-.77c0-3.47,0-6.93,0-10.4,0-.56.15-.73.72-.72,1.66,0,1.66,0,2.17,1.53C9.73,85.24,10.66,88,11.65,91Z"/><path class="cls-1" d="M286.36,89.88V84.15c0-.88,0-1.76,0-2.64s.47-.55.86-.57.76,0,.75.6c0,3.55,0,7.1,0,10.65,0,.22.1.59-.24.57-.57,0-1.22.34-1.68-.35-1.07-1.63-2.17-3.24-3.25-4.85a37.64,37.64,0,0,0-2.66-3.65V86.1c0,2,0,4,0,5.93,0,.58-.13.8-.75.79s-.79-.15-.78-.76c0-3.42,0-6.84,0-10.26,0-.29-.22-.81.32-.83s1.11-.3,1.53.34c1,1.56,2.07,3.1,3.11,4.66l2.64,4Z"/><path class="cls-1" d="M119.36,84v7.92a.91.91,0,0,1-1.38.89c-.24-.1-.2-.29-.2-.47V81.41c0-.21,0-.48.29-.46.58,0,1.2-.25,1.65.45,1.17,1.82,2.39,3.61,3.59,5.4a31.32,31.32,0,0,0,2.3,3.13v-1.7c0-2.19,0-4.38,0-6.57,0-.54.13-.75.71-.74s.82.06.82.72c0,3.42,0,6.84,0,10.25,0,.31.23.82-.28.86s-1.18.32-1.6-.33c-.56-.85-1.13-1.68-1.69-2.53q-2-3-4-6Z"/><path class="cls-1" d="M179.71,93a5.1,5.1,0,0,1-3.27-.8,3.83,3.83,0,0,1-1.6-2.58c-.05-.27-.11-.67.35-.61s1.12-.42,1.19.33c.21,2.18,3.79,3,5.59,1.68a1.63,1.63,0,0,0-.52-3c-1.12-.41-2.3-.66-3.45-1a6.28,6.28,0,0,1-.83-.29A2.78,2.78,0,0,1,175.28,84a2.89,2.89,0,0,1,1.93-2.77,5.79,5.79,0,0,1,4.88.15,3.09,3.09,0,0,1,1.73,2.44c0,.25.16.61-.27.59s-.92.35-1.21-.21a3.13,3.13,0,0,0-4.21-1.81,1.68,1.68,0,0,0-1.33,1.52A1.43,1.43,0,0,0,178,85.37c1.17.35,2.37.62,3.54,1,1.94.6,2.87,1.81,2.7,3.44A3.73,3.73,0,0,1,180.67,93C180.35,93,180,93,179.71,93Z"/><path class="cls-1" d="M240.72,85.6a24.63,24.63,0,0,1-.19,4.37,3.6,3.6,0,0,1-3.47,3,8.5,8.5,0,0,1-2.71-.12,3.63,3.63,0,0,1-2.82-3.29,20.33,20.33,0,0,1-.13-2.47c0-1.76,0-3.52,0-5.28,0-.75.24-.89.91-.87s.73.17.73.73c0,2.13,0,4.27,0,6.4a7,7,0,0,0,.17,1.59,2.28,2.28,0,0,0,1.73,1.81,4.53,4.53,0,0,0,2.45,0,2.41,2.41,0,0,0,1.73-2.5c.19-2.37.09-4.75.1-7.12,0-.54,0-.88.75-.88s.82.3.8.91C240.69,83,240.72,84.17,240.72,85.6Z"/><path class="cls-1" d="M249.84,93c-3.59.17-5.15-2.37-5.45-5.33a7,7,0,0,1,1-4.6c1.88-3,6.94-3.06,8.72-.11a1.56,1.56,0,0,1,.16.28c.14.31.46.72.3.94s-.83.3-1.26.41c-.28.08-.31-.23-.4-.41-.83-1.65-1.64-2.1-3.52-2a3.39,3.39,0,0,0-3,2.48,7,7,0,0,0,0,4.55,3.46,3.46,0,0,0,3.39,2.44A3.21,3.21,0,0,0,253,89.24c.33-1,.93-.34,1.38-.28.65.09.3.57.19.87A4.57,4.57,0,0,1,249.84,93Z"/><path class="cls-1" d="M85.22,87.09a5.66,5.66,0,0,0,.35,2.18,3.47,3.47,0,0,0,3.51,2.39,3.24,3.24,0,0,0,3.18-2.45c.31-1,.88-.26,1.32-.26.62,0,.34.46.25.75a4.68,4.68,0,0,1-4.5,3.3c-3.81.21-5.42-2.33-5.72-5.2a6.31,6.31,0,0,1,1.79-5.7c2.47-2.28,6.88-1.56,8.12,1.34.11.27.56.75-.1.88-.45.1-1.06.7-1.42-.26a2.84,2.84,0,0,0-2.94-1.89,3.44,3.44,0,0,0-3.32,2A5.86,5.86,0,0,0,85.22,87.09Z"/><path class="cls-1" d="M65.72,87.65c0,1.5,0,3,0,4.49,0,.73-.39.64-.86.66s-.78,0-.77-.67c0-3,0-6,0-9,0-.64-.19-.83-.81-.79-.83,0-1.66,0-2.49,0-.63,0-.58-.34-.59-.76s0-.71.57-.7c2.78,0,5.55,0,8.33,0,.6,0,.55.34.55.72s.07.76-.54.74c-.93,0-1.87,0-2.8,0-.49,0-.65.14-.64.64C65.73,84.56,65.72,86.1,65.72,87.65Z"/><path class="cls-1" d="M192.45,87.57c0,1.53,0,3.05,0,4.57,0,.73-.39.65-.85.66s-.79,0-.78-.65c0-3,0-6,0-9,0-.61-.13-.86-.79-.81-.85,0-1.71,0-2.56,0-.61,0-.52-.37-.53-.74s0-.73.55-.72q4.13,0,8.25,0c.58,0,.56.33.56.72s0,.76-.55.74c-.9,0-1.81,0-2.72,0-.49,0-.64.15-.63.64C192.46,84.53,192.45,86.05,192.45,87.57Z"/><path class="cls-1" d="M97.63,86.93c0-1.74,0-3.47,0-5.2,0-.63.23-.81.85-.81s.85.19.84.81c0,3.47,0,6.94,0,10.4,0,.73-.39.67-.86.67s-.87,0-.85-.67C97.66,90.4,97.63,88.66,97.63,86.93Z"/><path class="cls-1" d="M171.13,86.85c0,1.73,0,3.46,0,5.19,0,.69-.26.78-.83.77s-.81-.06-.8-.72c0-3.49,0-7,0-10.48,0-.7.34-.66.83-.68s.82.06.8.72C171.1,83.38,171.13,85.11,171.13,86.85Z"/><path class="cls-1" d="M213.1,86.84c0-1.76,0-3.52,0-5.27,0-.67.35-.65.81-.64s.83-.09.82.61c0,3.54,0,7.09,0,10.63,0,.75-.44.59-.88.63s-.76-.09-.74-.69C213.12,90.36,213.1,88.6,213.1,86.84Z"/><path class="cls-1" d="M.16,86.85c0-1.68,0-3.36,0-5,0-.6.05-.91.79-.9s.84.2.84.86c0,3.39,0,6.77,0,10.16,0,.6-.06.89-.79.9s-.84-.32-.83-1C.18,90.21.16,88.53.16,86.85Z"/><path class="cls-1" d="M258.46,86.85c0-1.71,0-3.41,0-5.12,0-.62.15-.84.8-.81s.84.07.83.77c0,3.46,0,6.93,0,10.4,0,.65-.25.72-.79.72s-.86-.07-.84-.76C258.5,90.31,258.46,88.58,258.46,86.85Z"/><path class="cls-1" d="M336.69,73.89a6.55,6.55,0,0,1-2.37-.77c-.95-.43-1.46-.72-2.12.45-.3.52-.91.35-1.31.21s-.07-.56,0-.82c.68-1.89,2-2.42,3.86-1.56.38.18.77.37,1.16.54a1.08,1.08,0,0,0,1.64-.56c.29-.67.92-.46,1.31-.33s.14.64,0,.94A2.61,2.61,0,0,1,336.69,73.89Z"/><path class="cls-1" d="M107.67,80.23c.32-.69.63-1.3.91-1.93.14-.33.41-.28.67-.28h1.21A2.84,2.84,0,0,1,107.67,80.23Z"/><path class="cls-1" d="M271.43,78.08,270,79.92c-.05.06-.09.13-.15.19a1,1,0,0,1-1.12.11c-.34-.17,0-.5.13-.73C269.55,77.89,269.55,77.89,271.43,78.08Z"/><path class="cls-1" d="M169.76,54.54A8.17,8.17,0,0,0,166.3,49a16.31,16.31,0,0,0-2.75-1.33A10.7,10.7,0,0,0,168.5,40c.69-4.65-1.29-8.34-5.62-10.19a23.45,23.45,0,0,0-9.14-1.71C147,28,140.18,28,133.4,28c-.78,0-1,.22-1,1q0,19.91,0,39.81c0,.71.15,1,.93,1,6.91,0,13.83,0,20.74,0a27.1,27.1,0,0,0,6.35-.69c2.49-.6,4.86-1.45,6.62-3.45A12.08,12.08,0,0,0,169.76,54.54ZM145.8,44c0-.93,0-1.87,0-2.8s0-2,0-3c0-.35,0-.66.49-.64,2.12.1,4.26-.12,6.38.12a5.14,5.14,0,0,1,1.39.34,3.19,3.19,0,0,1,2.29,3.12,3.35,3.35,0,0,1-2.27,3.33,6.47,6.47,0,0,1-2.34.43c-1.71,0-3.41,0-5.12,0C145.93,44.88,145.77,44.62,145.8,44Zm10.1,15.49a8,8,0,0,1-3.74.64H150c-1.17,0-2.35,0-3.52,0-.46,0-.67-.09-.66-.61,0-2.24,0-4.48,0-6.73,0-.33.06-.58.47-.57,2.66.08,5.34-.21,8,.19a4.37,4.37,0,0,1,3.19,1.78A3.73,3.73,0,0,1,155.9,59.47Z"/><path class="cls-1" d="M247.54,68.15a2.79,2.79,0,0,1-1.45-2.65c0-2.46.07-4.91-.11-7.37-.29-3.71-2-6.34-5.61-7.56-.27-.09-.52-.21-.88-.35a8.72,8.72,0,0,0,5.37-4.73,14.39,14.39,0,0,0,.83-9.54c-.81-3.37-3.23-5.21-6.34-6.31a30.92,30.92,0,0,0-9.91-1.55c-6.7-.1-13.4,0-20.1-.09-.78,0-1,.22-1,1,0,5.37,0,10.73,0,16.1q0,11.7,0,23.39c0,1.56,0,1.25,1.22,1.25,3.82,0,7.63,0,11.45,0,.83,0,1-.24,1-1,0-4.19,0-8.38,0-12.57,0-.38-.07-.74.54-.73,2.05,0,4.11,0,6.16.06a4.41,4.41,0,0,1,4.39,3.81,18.11,18.11,0,0,1,.32,2.94,49.29,49.29,0,0,0,.29,6.54c.13.77.44,1,1.21,1,4.05,0,8.11,0,12.17,0,.27,0,.73.24.79-.25S248.16,68.5,247.54,68.15ZM233.62,42.5a3.7,3.7,0,0,1-2.55,3.32,9.08,9.08,0,0,1-3,.5c-1.84,0-3.68,0-5.52,0-.37,0-.7,0-.7-.51,0-2.59,0-5.18,0-7.77,0-.09.09-.18.14-.27,2,0,3.91,0,5.87,0a6.46,6.46,0,0,1,4.18,1A3.64,3.64,0,0,1,233.62,42.5Z"/><path class="cls-1" d="M73.57,68.17a3.35,3.35,0,0,1-1.47-3.31,55.8,55.8,0,0,0-.15-7.2c-.34-3.24-1.82-5.64-5-6.85l-1.5-.59a8.62,8.62,0,0,0,5.4-4.69,14.94,14.94,0,0,0,1.16-7.89c-.36-4-2.59-6.43-6.17-7.82a29.36,29.36,0,0,0-10.2-1.73C48.85,28,42,28,35.17,28c-.62,0-.76.21-.75.79q0,20.07,0,40.14c0,.62.18.82.82.81,4,0,8,0,11.94,0,.73,0,.95-.2.94-.94,0-4.22,0-8.44,0-12.66,0-.47.08-.75.65-.74,2,0,4,0,6,.05a4.4,4.4,0,0,1,4.4,3.6,18,18,0,0,1,.4,4.21,42.91,42.91,0,0,0,.25,5.43c.11.75.41,1.06,1.25,1,4,0,8,0,12,0h.56c.34,0,.48-.16.44-.5A1.25,1.25,0,0,0,73.57,68.17ZM58.36,45.07a5.76,5.76,0,0,1-3.88,1.2c-1.94,0-3.89,0-5.84,0-.55,0-.74-.16-.72-.74,0-1.19,0-2.39,0-3.59h0c0-1.2,0-2.4,0-3.6,0-.33,0-.62.42-.61,2.69,0,5.39-.24,8,.26a3.62,3.62,0,0,1,3.14,2.81A4.15,4.15,0,0,1,58.36,45.07Z"/><path class="cls-1" d="M376.57,26.17A45.31,45.31,0,0,0,373,13.72a23.27,23.27,0,0,0-6.65-8.87,16.57,16.57,0,0,0-12.27-3.44,17.58,17.58,0,0,0-11.16,5.45,28.61,28.61,0,0,0-6.28,10.48,59.86,59.86,0,0,0-3.19,20.07,50.75,50.75,0,0,0,.3,5.91,44,44,0,0,0,3.75,14.2,24.32,24.32,0,0,0,6.69,9,16.13,16.13,0,0,0,11.56,3.67,17.15,17.15,0,0,0,9.37-3.43,24.83,24.83,0,0,0,7.43-9.47c3.19-6.71,4.3-13.88,4.61-21.21A51.08,51.08,0,0,0,376.57,26.17ZM366.8,56.76a21.86,21.86,0,0,1-3.52,6.51,9.05,9.05,0,0,1-6.49,3.66,9.32,9.32,0,0,1-6.59-2.19c-2.75-2.21-4.35-5.2-5.63-8.4a50.22,50.22,0,0,1-3-12.2A75.59,75.59,0,0,1,341,31.21c.25-6.08.9-12.1,3.18-17.82a16,16,0,0,1,4.86-7,8.79,8.79,0,0,1,11.29.56c2.95,2.56,4.63,5.91,6,9.49a53.19,53.19,0,0,1,2.91,13.2c.27,2.67.42,5.36.47,8.13C369.55,44.17,369,50.59,366.8,56.76Z"/><path class="cls-1" d="M357.2,76.71A8.76,8.76,0,0,0,346,78.12a11.31,11.31,0,0,0-2.61,8.48,6.91,6.91,0,0,0,2,4.53C348.23,94,353.88,94,357,91a10.68,10.68,0,0,0,3.08-7.82C360.06,80.46,359.33,78.24,357.2,76.71Zm-2.83,12.85c-2,1.83-6.37,1.72-7.58-1.59-1.1-3,.26-7.66,2.84-9.35a5,5,0,0,1,6.25.57c.76.85,1.17,2.24,1.13,4.43A8.38,8.38,0,0,1,354.37,89.56Z"/><path class="cls-1" d="M321.42,91.83c-.8-4.59-1.59-9.17-2.4-13.76-.13-.73-.07-1.66-.5-2.12s-1.46-.11-2.22-.21a1.28,1.28,0,0,0-1.39.78c-2.05,3.47-4.13,6.91-6.2,10.37L305.2,92.8c.93,0,1.71,0,2.48,0a1.07,1.07,0,0,0,1.14-.64c.62-1.15,1.32-2.25,1.95-3.39a.82.82,0,0,1,.83-.48c1.86,0,3.73,0,5.6,0,.46,0,.67.13.72.62a16.87,16.87,0,0,0,.28,1.89c.13.65-.07,1.55.42,1.87s1.29.11,1.95.11C321.59,92.8,321.59,92.8,321.42,91.83ZM316.89,86c-1.3,0-2.6,0-3.91,0-.4,0-.64,0-.37-.53,1.22-2.12,2.42-4.25,3.62-6.38a3.77,3.77,0,0,0,.18-.38c.36,2.38.68,4.52,1,6.67C317.48,85.82,317.39,86.05,316.89,86Z"/><path class="cls-1" d="M226,86.66a.85.85,0,0,1-.21-.19c1.25-1,1.65-2,1.3-3.22a3,3,0,0,0-2.59-2.18c-1.7-.2-3.4-.1-5.11-.14-.41,0-.56.14-.56.56,0,3.57,0,7.15,0,10.72,0,.38.08.6.52.59,1.71,0,3.42,0,5.12,0a3.14,3.14,0,0,0,3.18-2.44C227.9,88.93,227.89,87.58,226,86.66Zm-4-4.27c.69,0,1.38.06,2.07.12a1.54,1.54,0,0,1,1.54,1.6,1.58,1.58,0,0,1-1.47,1.76,15.68,15.68,0,0,1-1.68,0c-2,0-2,0-2-1.95C220.47,82.38,220.47,82.37,222,82.39Zm2.43,8.93c-1.14.1-2.29.08-3.43.14-.42,0-.55-.17-.55-.57,0-1,0-1.92,0-2.87,0-.53.16-.73.68-.68.34,0,.69,0,1.18,0a11,11,0,0,1,2.08.13,1.82,1.82,0,0,1,1.71,1.94A1.8,1.8,0,0,1,224.44,91.32Z"/><path class="cls-1" d="M54.47,87.48l.94-.32a3,3,0,0,0,2.1-3.43,3,3,0,0,0-2.91-2.67c-2-.19-3.94-.08-5.91-.13-.49,0-.65.15-.65.64,0,3.52,0,7,0,10.56,0,.73.38.65.85.68s.83-.06.8-.72c-.06-1.31,0-2.62,0-3.93,0-.24-.1-.52.3-.63a4,4,0,0,1,3.92,1.36c.78,1.11,1.52,2.25,2.24,3.4a.88.88,0,0,0,.89.51c.44,0,.88,0,1.49,0C57.18,90.92,56.37,88.87,54.47,87.48Zm-4.41-1.27c-.34,0-.39-.19-.39-.46,0-1,0-2,0-3,0-.36.17-.45.49-.45h1.92c.64,0,1.28,0,1.92,0a1.93,1.93,0,0,1,1.9,1.8,1.88,1.88,0,0,1-1.7,1.9A26,26,0,0,1,50.06,86.21Z"/><path class="cls-1" d="M209.52,92.24c-1.12-1.63-1.93-3.5-3.59-4.72.2-.26.47-.21.69-.29a3.09,3.09,0,0,0,2.3-3.39,3,3,0,0,0-3.06-2.79c-1.89-.19-3.79,0-5.68-.12-.63,0-.74.23-.74.79,0,3.44,0,6.88,0,10.32,0,.6.17.78.77.78s.81-.13.79-.76c-.05-1.28,0-2.56,0-3.84,0-.25-.06-.54.28-.67a4.76,4.76,0,0,1,3.59.84,15.68,15.68,0,0,1,2.31,3.36,1.84,1.84,0,0,0,2.05,1.06C209.7,92.76,209.84,92.7,209.52,92.24Zm-8.12-6c-.38,0-.42-.22-.42-.52,0-.93,0-1.87,0-2.8,0-.42.15-.57.56-.55.64,0,1.28,0,1.92,0v0c.67,0,1.34,0,2,0a1.85,1.85,0,0,1,.17,3.68A27.16,27.16,0,0,1,201.4,86.21Z"/><path class="cls-1" d="M146,91.4c-1.09-1-1.12-1.06-.56-2.41.07-.17.13-.35.19-.52.31-.91.26-1-.67-1.13-.38-.06-.68,0-.77.45a8.36,8.36,0,0,1-.38,1c-.51-.63-.94-1.14-1.34-1.66-.68-.89-.68-.89.21-1.61,1.56-1.25,1.65-3.24.2-4.28a3.16,3.16,0,0,0-3.91.33,2.57,2.57,0,0,0-.11,3.55c.52.67.5.94-.25,1.38a3.34,3.34,0,0,0-1.84,3.58c.56,2.83,3.51,3.4,5.62,2.47.57-.25,1-1,1.48-.95s.91.76,1.38,1.15c.14.12.32.4.53.19a3,3,0,0,0,.77-1C146.66,91.72,146.22,91.58,146,91.4ZM141,82a1.29,1.29,0,0,1,1.37,1.26c0,.66-.87,1.83-1.41,1.86-.36,0-1.27-1.34-1.27-1.89A1.29,1.29,0,0,1,141,82Zm1.61,8.59a2.92,2.92,0,0,1-2.21,1.06c-.94.07-1.49-.53-1.91-1.34a1.9,1.9,0,0,1,.34-2.21,3.64,3.64,0,0,1,.34-.34c.93-.87,1-.87,1.79.11.56.67,1.09,1.37,1.65,2C142.85,90.18,142.9,90.37,142.65,90.62Z"/><path class="cls-1" d="M165.42,84.77A4.57,4.57,0,0,0,161,81c-1.47,0-2.93,0-4.39-.08-.57,0-.74.16-.73.72,0,1.73,0,3.47,0,5.2s0,3.52,0,5.28c0,.45.09.69.61.67,1.52,0,3,0,4.56,0a4.11,4.11,0,0,0,3.58-1.92A7.88,7.88,0,0,0,165.42,84.77Zm-1.66,4.09a3,3,0,0,1-3.16,2.49c-.38,0-.75,0-1.12,0-2,0-2,0-2-2s0-4.21,0-6.32c0-.52.16-.71.68-.68.88.06,1.76,0,2.64.06a3.19,3.19,0,0,1,3.07,2.93A8.27,8.27,0,0,1,163.76,88.86Z"/><path class="cls-1" d="M38.94,80.77c-3.31,0-5.71,2.12-5.73,6.19s2.76,6.19,5.64,6c3.26.15,5.69-2.28,5.7-5.91C44.55,83.26,42.34,80.75,38.94,80.77Zm3.44,8.72a3.86,3.86,0,0,1-4.1,2.14A4,4,0,0,1,35,88a9,9,0,0,1,.12-2.78,3.72,3.72,0,0,1,3.82-3.07,3.68,3.68,0,0,1,3.66,2.57A6.14,6.14,0,0,1,42.38,89.49Z"/><path class="cls-1" d="M269.53,80.76c-3.44,0-5.78,2.5-5.76,6.19s2.33,6,5.65,6c3.28.16,5.7-2.29,5.71-5.9C275.13,83.26,272.93,80.77,269.53,80.76ZM273,89.44a3.89,3.89,0,0,1-4.16,2.18,4,4,0,0,1-3.32-3.69c0-.32,0-.64,0-1,0-1.56.21-3,1.6-4a3.89,3.89,0,0,1,6,1.78A6.18,6.18,0,0,1,273,89.44Z"/><path class="cls-1" d="M114.25,85.79a5.27,5.27,0,0,0-3.59-4.68,5.46,5.46,0,0,0-5.93,1.2,6.27,6.27,0,0,0-1.68,5.53c.5,4.58,4.61,6.12,8,4.66,2.41-1,3.2-3.12,3.22-5.53C114.29,86.53,114.3,86.16,114.25,85.79Zm-4.06,5.57c-2.63,1.13-5.27-.68-5.54-3.77a7.47,7.47,0,0,1,.21-2.45,3.75,3.75,0,0,1,4-3,3.82,3.82,0,0,1,3.63,3.14,7.89,7.89,0,0,1,.17,1.67C112.63,88.89,112.1,90.53,110.19,91.36Z"/><path class="cls-1" d="M30.26,84a3.17,3.17,0,0,0-3-3c-1.84-.17-3.68-.11-5.51-.14-.5,0-.65.16-.64.64,0,1.76,0,3.52,0,5.28s0,3.58,0,5.36c0,.65.36.6.77.58s.88.16.85-.57c0-1,0-2,0-3C22.77,88,22.77,88,24,88A14.5,14.5,0,0,0,28,87.74,3.41,3.41,0,0,0,30.26,84Zm-3.63,2.5c-.55,0-1.11,0-1.67,0s-1.58.33-2-.09-.15-1.36-.16-2.07c0-2,0-2,2-2a12,12,0,0,1,2.07.08,2,2,0,0,1-.2,4.07Z"/><path class="cls-1" d="M81.07,92.32c-1.45-3.66-3-7.3-4.46-10.94a.59.59,0,0,0-.49-.45c-1.12-.17-1.36,0-1.77,1l-.6,1.56q-1.66,4.32-3.32,8.65c-.07.18-.25.39-.07.58s1.57,0,1.71-.43c.31-.83.6-1.65.89-2.48a.72.72,0,0,1,.79-.6q1.92,0,3.84,0a.62.62,0,0,1,.69.5c.26.75.61,1.48.84,2.24s.52,1,1.29.77C80.5,92.51,81.45,93.28,81.07,92.32Zm-7-4.38c-.53,0-.23-.37-.16-.57.55-1.58,1.24-3.11,1.68-4.9.7,1.91,1.34,3.62,2,5.48C76.34,88,75.18,88,74,87.94Z"/></g></g></svg>