<svg xmlns="http://www.w3.org/2000/svg" viewBox="0 0 15.9 9.662">
  <defs>
    <style>
      .cls-1 {
        fill: #0dc69e;
      }
    </style>
  </defs>
  <g id="mail" transform="translate(0 -100.445)">
    <g id="Group_784" data-name="Group 784" transform="translate(0 100.445)">
      <path id="Path_259" data-name="Path 259" class="cls-1" d="M15.889,101.258a.815.815,0,0,0-.814-.813h0l-14.26.02A.814.814,0,0,0,0,101.28l.011,8.013a.814.814,0,0,0,.814.813h0l14.26-.02a.815.815,0,0,0,.813-.816Zm-1.709,0-6.229,4.33-6.241-4.313Zm-3.595,5.148,3.695,2.865-12.669.017,3.717-2.883a.407.407,0,0,0-.5-.644l-4,3.1-.01-7.219,6.9,4.772a.407.407,0,0,0,.464,0l6.891-4.791.01,7.238-4-3.1a.407.407,0,1,0-.5.644Z" transform="translate(0 -100.445)"/>
    </g>
  </g>
</svg>
