<svg id="proveedores" xmlns="http://www.w3.org/2000/svg" viewBox="0 0 59.037 59.037">
  <defs>
    <style>
      .cls-1 {
        fill: #0dc69e;
      }
    </style>
  </defs>
  <path id="Path_264" data-name="Path 264" class="cls-1" d="M60.294,286H41.153A1.153,1.153,0,0,0,40,287.153v19.141a1.153,1.153,0,0,0,1.153,1.153H60.294a1.153,1.153,0,0,0,1.153-1.153V287.153A1.153,1.153,0,0,0,60.294,286Zm-17.988,3.937,6.786,6.786-6.786,6.786Zm1.631-1.631H57.51l-6.787,6.786Zm6.786,10.048,6.786,6.786H43.937Zm1.631-1.631,6.786-6.786V303.51Zm0,0" transform="translate(-35.388 -253.022)"/>
  <path id="Path_265" data-name="Path 265" class="cls-1" d="M57.884,28.365H44.854V19.871a1.153,1.153,0,0,0-2.306,0v8.494H16.489V2.306H42.548V10.57a1.153,1.153,0,0,0,2.306,0V1.153A1.153,1.153,0,0,0,43.7,0H15.336a1.153,1.153,0,0,0-1.153,1.153V28.365H1.153A1.153,1.153,0,0,0,0,29.519V57.884a1.153,1.153,0,0,0,1.153,1.153H57.884a1.153,1.153,0,0,0,1.153-1.153V29.519A1.153,1.153,0,0,0,57.884,28.365ZM2.306,30.672H28.365V56.731H2.306ZM56.731,56.731H30.672V30.672H56.731Zm0,0"/>
  <path id="Path_266" data-name="Path 266" class="cls-1" d="M286,287.153v19.141a1.153,1.153,0,0,0,1.153,1.153h19.141a1.153,1.153,0,0,0,1.153-1.153V287.153A1.153,1.153,0,0,0,306.294,286H287.153A1.153,1.153,0,0,0,286,287.153Zm9.093,9.57-6.787,6.787V289.937Zm1.631,1.631,6.786,6.786H289.937Zm8.417,5.155-6.786-6.786,1.637-1.637a1.153,1.153,0,0,0-1.631-1.63l-1.637,1.637-6.786-6.787h15.2Zm0,0" transform="translate(-253.022 -253.022)"/>
  <path id="Path_267" data-name="Path 267" class="cls-1" d="M416.774,324.685a1.152,1.152,0,1,0-.816-.338A1.162,1.162,0,0,0,416.774,324.685Zm0,0" transform="translate(-367.697 -285.206)"/>
  <path id="Path_268" data-name="Path 268" class="cls-1" d="M370.157,122.871a1.153,1.153,0,1,0,.815.338A1.16,1.16,0,0,0,370.157,122.871Zm0,0" transform="translate(-326.455 -108.703)"/>
  <path id="Path_269" data-name="Path 269" class="cls-1" d="M164.153,40A1.153,1.153,0,0,0,163,41.153V60.294a1.153,1.153,0,0,0,1.153,1.153h19.141a1.153,1.153,0,0,0,1.153-1.153V41.153A1.153,1.153,0,0,0,183.294,40Zm1.153,3.937,6.786,6.786-6.786,6.786Zm1.631-1.631H180.51l-6.787,6.786Zm6.786,10.048,6.786,6.786H166.937Zm1.631-1.631,6.786-6.786V57.51Zm0,0" transform="translate(-144.205 -35.388)"/>
</svg>
