<svg xmlns="http://www.w3.org/2000/svg" viewBox="0 0 15.9 15.923">
  <defs>
    <style>
      .cls-1 {
        fill: #0dc69e;
      }
    </style>
  </defs>
  <g id="telefono" transform="translate(-0.344)">
    <g id="Group_783" data-name="Group 783" transform="translate(0.344 0)">
      <path id="Path_256" data-name="Path 256" class="cls-1" d="M12.917,36.349a1.566,1.566,0,0,0-1.136-.521,1.619,1.619,0,0,0-1.149.518L9.57,37.4c-.087-.047-.175-.091-.259-.134-.121-.06-.235-.118-.333-.178a11.542,11.542,0,0,1-2.766-2.52,6.809,6.809,0,0,1-.907-1.432c.276-.252.531-.514.78-.766.094-.094.188-.192.282-.286a1.542,1.542,0,0,0,0-2.326l-.917-.917c-.1-.1-.212-.212-.313-.319-.2-.208-.413-.423-.632-.625a1.591,1.591,0,0,0-1.126-.494,1.646,1.646,0,0,0-1.143.494l-.007.007L1.088,29.059a2.459,2.459,0,0,0-.729,1.563,5.891,5.891,0,0,0,.43,2.494A14.47,14.47,0,0,0,3.359,37.4a15.815,15.815,0,0,0,5.266,4.123,8.2,8.2,0,0,0,2.957.874c.071,0,.145.007.212.007a2.532,2.532,0,0,0,1.939-.833c0-.007.01-.01.013-.017a7.64,7.64,0,0,1,.588-.608c.145-.138.292-.282.437-.434a1.676,1.676,0,0,0,.507-1.163,1.615,1.615,0,0,0-.518-1.153Zm1.2,3.539s0,0,0,0c-.131.141-.265.269-.41.41a8.837,8.837,0,0,0-.649.672A1.62,1.62,0,0,1,11.8,41.5c-.05,0-.1,0-.155,0a7.289,7.289,0,0,1-2.621-.786,14.928,14.928,0,0,1-4.96-3.885A13.643,13.643,0,0,1,1.642,32.8a4.8,4.8,0,0,1-.376-2.1,1.543,1.543,0,0,1,.464-1l1.146-1.146a.764.764,0,0,1,.511-.239.719.719,0,0,1,.491.235l.01.01c.2.192.4.39.6.6.1.108.212.215.319.326l.917.917a.641.641,0,0,1,0,1.042c-.1.1-.192.195-.289.289-.282.289-.551.558-.844.82-.007.007-.013.01-.017.017a.685.685,0,0,0-.175.763l.01.03A7.366,7.366,0,0,0,5.5,35.135l0,0a12.335,12.335,0,0,0,2.984,2.715,4.587,4.587,0,0,0,.413.225c.121.06.235.118.333.178.013.007.027.017.04.024a.729.729,0,0,0,.333.084.719.719,0,0,0,.511-.232l1.149-1.149a.76.76,0,0,1,.507-.252.684.684,0,0,1,.484.245l.007.007,1.852,1.852A.664.664,0,0,1,14.12,39.887Z" transform="translate(-0.344 -26.485)"/>
      <path id="Path_257" data-name="Path 257" class="cls-1" d="M245.317,86.825a4.325,4.325,0,0,1,3.522,3.522.451.451,0,0,0,.447.376.6.6,0,0,0,.077-.007.454.454,0,0,0,.373-.524,5.23,5.23,0,0,0-4.261-4.261.456.456,0,0,0-.524.37A.449.449,0,0,0,245.317,86.825Z" transform="translate(-236.724 -83.038)"/>
      <path id="Path_258" data-name="Path 258" class="cls-1" d="M256.319,7.024A8.611,8.611,0,0,0,249.3.007a.453.453,0,1,0-.148.894,7.692,7.692,0,0,1,6.271,6.271.451.451,0,0,0,.447.376.6.6,0,0,0,.077-.007A.445.445,0,0,0,256.319,7.024Z" transform="translate(-240.427 0)"/>
    </g>
  </g>
</svg>
